<?xml version="1.0" standalone="no"?>
<!DOCTYPE svg PUBLIC "-//W3C//DTD SVG 20010904//EN"
 "http://www.w3.org/TR/2001/REC-SVG-20010904/DTD/svg10.dtd">
<svg version="1.0" xmlns="http://www.w3.org/2000/svg"
 width="512.000000pt" height="512.000000pt" viewBox="0 0 512.000000 512.000000"
 preserveAspectRatio="xMidYMid meet">

<g transform="translate(0.000000,512.000000) scale(0.100000,-0.100000)"
fill="#000000" stroke="none">
<path d="M2065 5113 c-195 -31 -375 -118 -508 -247 -63 -60 -70 -86 -36 -130
34 -43 79 -36 142 22 97 91 208 152 338 188 98 27 290 25 393 -4 124 -36 226
-94 322 -184 165 -157 244 -338 244 -561 0 -130 -21 -220 -80 -343 -77 -159
-220 -297 -378 -364 l-53 -23 -47 53 c-86 99 -215 129 -327 76 -47 -21 -125
-94 -125 -116 0 -17 -23 -11 -98 25 -346 166 -515 569 -392 937 31 94 32 99
16 123 -25 38 -58 50 -92 33 -34 -16 -54 -55 -85 -163 -31 -108 -34 -353 -5
-459 44 -164 121 -301 235 -419 102 -106 197 -168 362 -235 19 -7 29 -22 39
-57 17 -59 95 -147 151 -169 37 -15 40 -19 37 -49 l-3 -32 -419 -120 -419
-120 -44 46 c-108 115 -283 119 -393 9 -58 -58 -75 -103 -75 -195 1 -96 21
-142 89 -202 l45 -40 -65 -274 c-35 -150 -72 -284 -80 -297 -20 -30 -72 -52
-123 -52 -31 0 -44 -6 -60 -26 -55 -70 4 -134 112 -120 75 10 126 36 174 89
49 53 50 56 128 393 l59 252 52 11 c99 22 183 107 205 207 7 30 13 54 14 54 1
0 181 51 398 114 218 62 399 111 402 108 3 -3 5 -153 5 -333 l0 -327 -34 -12
c-50 -16 -111 -74 -140 -132 -50 -100 -28 -246 48 -317 l24 -22 -132 -307
-132 -307 -59 -6 c-33 -3 -77 -14 -97 -23 -35 -17 -104 -83 -124 -119 -9 -16
-30 -15 -310 23 -368 50 -342 44 -350 78 -9 39 -47 102 -81 134 -103 98 -300
91 -388 -14 -53 -63 -70 -108 -69 -188 0 -64 4 -83 29 -128 15 -29 34 -57 40
-62 9 -8 3 -28 -26 -83 -21 -39 -39 -82 -39 -93 0 -36 37 -74 74 -74 40 0 63
24 104 106 l31 61 58 0 c98 0 180 47 243 140 l15 23 320 -45 c176 -25 321 -45
321 -45 1 0 5 -15 8 -34 9 -49 61 -121 113 -155 184 -122 423 7 423 229 0 74
-24 137 -69 185 l-29 30 131 306 130 307 59 5 c62 5 127 33 169 73 l26 25 219
-94 219 -94 -2 -34 c-10 -154 -5 -226 21 -302 49 -146 146 -263 275 -331 l69
-36 -13 -58 c-8 -31 -24 -101 -36 -154 -17 -76 -26 -98 -39 -98 -38 0 -112
-34 -153 -70 -142 -126 -113 -359 57 -448 42 -22 64 -26 126 -27 80 0 125 17
187 69 l29 24 113 -49 c62 -27 121 -49 132 -49 28 0 69 44 69 73 0 41 -30 65
-145 116 l-110 49 -3 53 c-3 71 -42 150 -96 195 l-42 35 35 155 35 154 69 0
c121 0 236 41 345 122 l53 39 14 -33 c65 -154 258 -586 270 -605 42 -64 151
-84 215 -40 59 39 71 71 86 243 7 86 15 158 16 159 2 1 71 8 153 14 158 14
202 26 235 69 28 35 44 94 36 136 -12 63 -54 98 -183 154 -150 65 -168 67
-203 30 -23 -25 -26 -65 -6 -94 8 -11 64 -41 125 -68 61 -27 111 -52 111 -56
0 -3 -68 -12 -151 -19 -115 -9 -161 -17 -192 -32 l-40 -21 -175 176 -176 175
30 11 c25 10 39 7 104 -20 147 -63 152 -65 185 -49 40 20 54 72 27 108 -24 33
-223 121 -273 121 l-36 0 -7 80 c-13 159 -74 289 -185 392 -227 212 -573 208
-791 -10 -36 -37 -73 -78 -81 -91 l-15 -24 -224 97 -225 96 -2 49 c-3 98 -72
201 -159 237 l-34 14 0 341 0 341 28 -6 c32 -7 568 -96 576 -96 3 0 15 -21 26
-47 55 -124 194 -190 327 -154 146 40 231 213 180 367 -6 17 38 67 257 297
234 245 267 283 286 334 29 76 23 151 -16 223 -48 88 -95 110 -148 69 -34 -27
-34 -69 -1 -114 30 -39 41 -89 27 -126 -14 -35 -504 -544 -522 -542 -8 1 -42
10 -75 19 -77 22 -135 14 -206 -29 -47 -28 -107 -96 -121 -137 -2 -7 -106 6
-305 40 -166 27 -304 50 -307 50 -3 0 -6 15 -6 33 1 28 6 34 50 55 58 27 107
85 131 154 16 48 19 51 94 83 290 126 487 366 549 667 20 97 21 275 1 365 -46
219 -162 409 -329 539 -170 134 -331 192 -546 199 -69 2 -138 1 -155 -2z m185
-1658 c43 -22 60 -53 60 -108 0 -42 -5 -54 -34 -83 -33 -33 -52 -39 -106 -34
-79 7 -125 103 -85 180 28 55 105 76 165 45z m944 -509 c47 -20 76 -61 76
-108 0 -73 -49 -128 -115 -128 -135 0 -175 182 -51 236 40 17 49 17 90 0z
m-2096 -206 c68 -41 78 -133 22 -189 -37 -37 -75 -45 -125 -29 -77 25 -107
113 -62 179 41 61 105 76 165 39z m1147 -704 c88 -37 86 -179 -3 -222 -47 -22
-97 -11 -139 31 -44 44 -47 107 -6 155 42 51 86 61 148 36z m1270 -221 c165
-43 286 -176 315 -348 41 -232 -142 -468 -373 -485 -64 -4 -69 -4 -64 14 3 10
11 45 18 77 11 51 15 57 38 57 14 0 46 10 71 21 118 53 185 181 160 305 -42
203 -277 287 -444 159 l-46 -35 -65 27 c-36 15 -65 30 -65 35 0 18 81 94 132
125 99 60 212 76 323 48z m-61 -299 c49 -20 76 -61 76 -113 0 -96 -86 -149
-175 -107 -94 44 -81 194 19 223 43 13 43 13 80 -3z m-378 -52 l61 -26 2 -51
c1 -68 41 -147 95 -193 l43 -36 -14 -61 c-21 -95 -18 -92 -60 -66 -109 64
-193 186 -212 304 -11 69 -4 155 13 155 6 0 39 -12 72 -26z m-2466 -379 c79
-41 79 -169 0 -210 -71 -37 -156 -4 -180 70 -24 73 34 155 111 155 22 0 53 -7
69 -15z m1170 -160 c55 -28 76 -105 45 -165 -22 -43 -53 -60 -108 -60 -42 0
-54 5 -83 34 -29 29 -34 41 -34 81 0 57 12 80 53 105 38 24 87 25 127 5z
m1424 -540 c67 -32 88 -127 41 -183 -36 -43 -77 -58 -125 -43 -53 16 -90 62
-90 113 0 96 88 154 174 113z"/>
<path d="M2171 4514 c-17 -22 -21 -41 -21 -110 0 -45 3 -90 6 -99 10 -26 63
-45 93 -34 42 17 50 38 51 132 0 80 -2 90 -25 112 -33 34 -77 33 -104 -1z"/>
<path d="M2501 4521 c-25 -25 -35 -75 -29 -152 5 -71 29 -102 78 -102 48 0 71
30 77 101 10 112 -16 172 -77 172 -16 0 -39 -9 -49 -19z"/>
<path d="M2105 4075 c-14 -13 -25 -35 -25 -49 0 -60 122 -143 243 -167 108
-22 246 18 330 94 47 44 52 94 11 126 -32 26 -51 26 -85 3 -79 -53 -96 -62
-140 -72 -70 -17 -145 1 -211 51 -61 45 -89 49 -123 14z"/>
</g>
</svg>
